<?xml version="1.0" standalone="no"?><svg xmlns="http://www.w3.org/2000/svg" viewBox="0 0 1440 320"><path fill="#273036" fill-opacity="1" d="M0,256L34.3,250.7C68.6,245,137,235,206,229.3C274.3,224,343,224,411,240C480,256,549,288,617,298.7C685.7,309,754,299,823,282.7C891.4,267,960,245,1029,250.7C1097.1,256,1166,288,1234,277.3C1302.9,267,1371,213,1406,186.7L1440,160L1440,320L1405.7,320C1371.4,320,1303,320,1234,320C1165.7,320,1097,320,1029,320C960,320,891,320,823,320C754.3,320,686,320,617,320C548.6,320,480,320,411,320C342.9,320,274,320,206,320C137.1,320,69,320,34,320L0,320Z"></path></svg>